<?xml version="1.0" encoding="UTF-8"?>
<svg xmlns="http://www.w3.org/2000/svg" xmlns:xlink="http://www.w3.org/1999/xlink" width="726.8pt" height="500pt" viewBox="0 0 726.8 500" version="1.1">
<defs>
<clipPath id="clip1">
  <path d="M 679 400 L 726.800781 400 L 726.800781 451 L 679 451 Z M 679 400 "/>
</clipPath>
</defs>
<g id="surface1">
<path style=" stroke:none;fill-rule:nonzero;fill:rgb(37.599182%,37.599182%,37.599182%);fill-opacity:1;" d="M 29.308594 361.363281 L 26.039063 350.210938 C 25.136719 347.109375 24.207031 343.171875 23.402344 340.105469 L 23.234375 340.105469 C 22.464844 343.191406 21.675781 347.175781 20.832031 350.222656 L 17.695313 361.363281 Z M 15.972656 370.203125 L 12.269531 383.679688 L 0 383.679688 L 16.015625 331.195313 L 31.546875 331.195313 L 47.886719 383.679688 L 35.101563 383.679688 L 31.066406 370.203125 "/>
<path style=" stroke:none;fill-rule:nonzero;fill:rgb(37.599182%,37.599182%,37.599182%);fill-opacity:1;" d="M 89.1875 371.464844 C 89.1875 376.421875 89.335938 380.511719 89.5 383.679688 L 79.222656 383.679688 L 78.675781 378.300781 L 78.429688 378.300781 C 76.9375 380.65625 73.386719 384.535156 66.550781 384.535156 C 58.808594 384.535156 53.164063 379.695313 53.164063 367.976563 L 53.164063 345.566406 L 65.03125 345.566406 L 65.03125 366.050781 C 65.03125 371.628906 66.820313 374.964844 70.996094 374.964844 C 74.21875 374.964844 76.125 372.730469 76.886719 370.796875 C 77.1875 370.105469 77.320313 369.230469 77.320313 368.28125 L 77.320313 345.566406 L 89.1875 345.566406 "/>
<path style=" stroke:none;fill-rule:nonzero;fill:rgb(37.599182%,37.599182%,37.599182%);fill-opacity:1;" d="M 123.738281 361.742188 C 123.738281 361.078125 123.714844 360.273438 123.585938 359.59375 C 122.910156 356.414063 120.324219 353.804688 116.714844 353.804688 C 111.28125 353.804688 108.535156 358.617188 108.535156 364.625 C 108.535156 371.035156 111.695313 375.089844 116.632813 375.089844 C 120 375.089844 122.765625 372.757813 123.488281 369.410156 C 123.683594 368.597656 123.738281 367.679688 123.738281 366.730469 Z M 135.589844 328.390625 L 135.589844 372.296875 C 135.589844 376.621094 135.738281 381.128906 135.902344 383.679688 L 125.367188 383.679688 L 124.871094 378.097656 L 124.703125 378.097656 C 122.304688 382.371094 117.691406 384.535156 112.773438 384.535156 C 103.78125 384.535156 96.507813 376.8125 96.507813 364.96875 C 96.449219 352.171875 104.488281 344.710938 113.5625 344.710938 C 118.269531 344.710938 121.878906 346.386719 123.582031 349.015625 L 123.738281 349.015625 L 123.738281 328.390625 "/>
<path style=" stroke:none;fill-rule:nonzero;fill:rgb(37.599182%,37.599182%,37.599182%);fill-opacity:1;" d="M 145.085938 345.566406 L 156.949219 345.566406 L 156.949219 383.679688 L 145.085938 383.679688 Z M 157.285156 334.984375 C 157.300781 338.285156 154.863281 340.90625 150.914063 340.90625 C 147.164063 340.90625 144.734375 338.285156 144.75 334.984375 C 144.734375 331.597656 147.222656 329.050781 151.023438 329.050781 C 154.851563 329.050781 157.238281 331.589844 157.285156 334.984375 "/>
<path style=" stroke:none;fill-rule:nonzero;fill:rgb(37.599182%,37.599182%,37.599182%);fill-opacity:1;" d="M 179.632813 334.695313 L 179.632813 345.566406 L 188.160156 345.566406 L 188.160156 354.304688 L 179.632813 354.304688 L 179.632813 368.113281 C 179.632813 372.710938 180.773438 374.832031 184.308594 374.832031 C 185.835938 374.832031 187.011719 374.671875 187.828125 374.476563 L 187.925781 383.480469 C 186.394531 384.03125 183.566406 384.496094 180.246094 384.496094 C 176.417969 384.496094 173.222656 383.164063 171.316406 381.191406 C 169.117188 378.933594 168.039063 375.308594 168.039063 369.894531 L 168.039063 354.304688 L 162.976563 354.304688 L 162.976563 345.566406 L 168.039063 345.566406 L 168.039063 337.378906 "/>
<path style=" stroke:none;fill-rule:nonzero;fill:rgb(37.599182%,37.599182%,37.599182%);fill-opacity:1;" d="M 204.640625 364.632813 C 204.640625 371.136719 207.386719 376.070313 212.4375 376.070313 C 217.054688 376.070313 219.980469 371.445313 219.980469 364.570313 C 219.980469 358.949219 217.816406 353.171875 212.445313 353.171875 C 206.796875 353.171875 204.640625 358.984375 204.640625 364.632813 M 232.191406 364.238281 C 232.191406 378.171875 222.324219 384.535156 212.105469 384.535156 C 201.019531 384.535156 192.425781 377.203125 192.425781 364.898438 C 192.425781 352.601563 200.539063 344.707031 212.789063 344.707031 C 224.441406 344.707031 232.191406 352.734375 232.191406 364.238281 "/>
<path style=" stroke:none;fill-rule:nonzero;fill:rgb(37.599182%,37.599182%,37.599182%);fill-opacity:1;" d="M 239.519531 358.128906 C 239.519531 352.535156 239.421875 348.847656 239.210938 345.566406 L 249.390625 345.566406 L 249.824219 352.621094 L 250.113281 352.621094 C 252.070313 347.046875 256.710938 344.707031 260.402344 344.707031 C 261.496094 344.707031 262.050781 344.734375 262.933594 344.929688 L 262.933594 356.074219 C 262.015625 355.878906 261.0625 355.738281 259.730469 355.738281 C 255.378906 355.738281 252.402344 358.050781 251.605469 361.757813 C 251.460938 362.511719 251.386719 363.433594 251.386719 364.394531 L 251.386719 383.679688 L 239.519531 383.679688 "/>
<path style=" stroke:none;fill-rule:nonzero;fill:rgb(37.599182%,37.599182%,37.599182%);fill-opacity:1;" d="M 268.957031 345.566406 L 280.820313 345.566406 L 280.820313 383.679688 L 268.957031 383.679688 Z M 281.15625 334.984375 C 281.171875 338.285156 278.734375 340.90625 274.785156 340.90625 C 271.035156 340.90625 268.605469 338.285156 268.621094 334.984375 C 268.605469 331.597656 271.09375 329.050781 274.894531 329.050781 C 278.722656 329.050781 281.109375 331.589844 281.15625 334.984375 "/>
<path style=" stroke:none;fill-rule:nonzero;fill:rgb(37.599182%,37.599182%,37.599182%);fill-opacity:1;" d="M 300.324219 364.632813 C 300.324219 371.136719 303.074219 376.070313 308.125 376.070313 C 312.742188 376.070313 315.667969 371.445313 315.667969 364.570313 C 315.667969 358.949219 313.503906 353.171875 308.132813 353.171875 C 302.484375 353.171875 300.324219 358.984375 300.324219 364.632813 M 327.878906 364.238281 C 327.878906 378.171875 318.011719 384.535156 307.792969 384.535156 C 296.707031 384.535156 288.113281 377.203125 288.113281 364.898438 C 288.113281 352.601563 296.226563 344.707031 308.476563 344.707031 C 320.128906 344.707031 327.878906 352.734375 327.878906 364.238281 "/>
<path style=" stroke:none;fill-rule:nonzero;fill:rgb(37.599182%,37.599182%,37.599182%);fill-opacity:1;" d="M 197.25 432.132813 C 197.089844 426.683594 196.964844 420.273438 196.980469 412.753906 L 196.785156 412.753906 C 195.308594 419.148438 193.277344 426.308594 191.726563 431.582031 L 186.972656 448.324219 L 176.910156 448.324219 L 172.882813 431.636719 C 171.65625 426.46875 170.175781 419.363281 169.054688 412.753906 L 168.914063 412.753906 C 168.644531 419.523438 168.394531 426.683594 168.183594 432.132813 L 167.453125 449.320313 L 155.609375 449.320313 L 158.566406 401.304688 L 175.875 401.304688 L 179.046875 414.234375 C 180.363281 419.578125 181.789063 425.9375 182.785156 431.828125 L 183.035156 431.828125 C 184.371094 425.96875 185.976563 419.183594 187.382813 414.128906 L 190.980469 401.304688 L 207.898438 401.304688 L 210.304688 449.320313 L 197.820313 449.320313 "/>
<path style=" stroke:none;fill-rule:nonzero;fill:rgb(37.599182%,37.599182%,37.599182%);fill-opacity:1;" d="M 248.378906 429.960938 L 231.121094 429.960938 L 231.121094 438.8125 L 250.40625 438.8125 L 250.40625 449.320313 L 218.261719 449.320313 L 218.261719 401.304688 L 249.410156 401.304688 L 249.410156 411.8125 L 231.121094 411.8125 L 231.121094 419.558594 L 248.378906 419.558594 "/>
<path style=" stroke:none;fill-rule:nonzero;fill:rgb(37.599182%,37.599182%,37.599182%);fill-opacity:1;" d="M 266.894531 412.097656 L 254.660156 412.097656 L 254.660156 401.304688 L 292.222656 401.304688 L 292.222656 412.097656 L 279.753906 412.097656 L 279.753906 449.320313 L 266.894531 449.320313 "/>
<path style=" stroke:none;fill-rule:nonzero;fill:rgb(37.599182%,37.599182%,37.599182%);fill-opacity:1;" d="M 310.921875 422.089844 L 314.269531 422.089844 C 319.113281 422.089844 321.910156 419.71875 321.910156 416.121094 C 321.910156 412.523438 319.539063 410.476563 315.265625 410.441406 C 312.84375 410.441406 311.5625 410.566406 310.921875 410.726563 Z M 298.183594 401.964844 C 301.820313 401.394531 307.269531 400.929688 313.699219 400.929688 C 321.054688 400.929688 326.324219 401.945313 329.941406 404.667969 C 333.023438 407.023438 334.679688 410.441406 334.679688 415.144531 C 334.679688 421.128906 330.191406 425.382813 326.449219 426.753906 L 326.449219 427.003906 C 329.640625 428.375 331.367188 431.441406 332.59375 435.605469 C 334.039063 440.484375 335.625 447.46875 336.550781 449.320313 L 323.40625 449.320313 C 322.675781 447.929688 321.429688 444.175781 320.039063 438.261719 C 318.738281 432.507813 316.976563 431.316406 313.003906 431.316406 L 310.921875 431.316406 L 310.921875 449.320313 L 298.183594 449.320313 "/>
<path style=" stroke:none;fill-rule:nonzero;fill:rgb(37.599182%,37.599182%,37.599182%);fill-opacity:1;" d="M 353.160156 425.367188 C 353.160156 434.394531 357.097656 439.917969 363.242188 439.917969 C 369.492188 439.917969 373.109375 433.898438 373.109375 425.242188 C 373.109375 416.976563 369.40625 410.707031 363.171875 410.707031 C 357.097656 410.707031 353.160156 416.53125 353.160156 425.367188 M 386.71875 424.832031 C 386.71875 440.273438 377.4375 450.105469 362.617188 450.105469 C 347.730469 450.105469 339.554688 438.9375 339.554688 425.597656 C 339.554688 411.617188 348.710938 400.519531 363.421875 400.519531 C 378.863281 400.519531 386.71875 411.972656 386.71875 424.832031 "/>
<path style=" stroke:none;fill-rule:nonzero;fill:rgb(37.599182%,37.599182%,37.599182%);fill-opacity:1;" d="M 406.304688 423.15625 C 407 423.28125 407.855469 423.335938 409.242188 423.335938 C 414.246094 423.335938 417.382813 420.753906 417.382813 416.621094 C 417.382813 413.042969 415.015625 410.617188 410.117188 410.617188 C 408.226563 410.617188 406.964844 410.761719 406.304688 410.921875 Z M 393.570313 401.964844 C 397.0625 401.394531 402.101563 400.929688 409.402344 400.929688 C 416.3125 400.929688 421.265625 402.175781 424.632813 404.761719 C 427.910156 407.179688 430.101563 411.417969 430.101563 416.316406 C 430.101563 421.179688 428.476563 425.4375 425.433594 428.164063 C 421.550781 431.636719 415.921875 433.183594 409.4375 433.183594 C 408.191406 433.183594 407.089844 433.078125 406.304688 433.023438 L 406.304688 449.320313 L 393.570313 449.320313 "/>
<path style=" stroke:none;fill-rule:nonzero;fill:rgb(37.599182%,37.599182%,37.599182%);fill-opacity:1;" d="M 448.046875 425.367188 C 448.046875 434.394531 451.984375 439.917969 458.128906 439.917969 C 464.378906 439.917969 467.992188 433.898438 467.992188 425.242188 C 467.992188 416.976563 464.289063 410.707031 458.058594 410.707031 C 451.984375 410.707031 448.046875 416.53125 448.046875 425.367188 M 481.605469 424.832031 C 481.605469 440.273438 472.324219 450.105469 457.507813 450.105469 C 442.617188 450.105469 434.441406 438.9375 434.441406 425.597656 C 434.441406 411.617188 443.59375 400.519531 458.308594 400.519531 C 473.746094 400.519531 481.605469 411.972656 481.605469 424.832031 "/>
<path style=" stroke:none;fill-rule:nonzero;fill:rgb(37.599182%,37.599182%,37.599182%);fill-opacity:1;" d="M 488.457031 401.304688 L 501.316406 401.304688 L 501.316406 438.542969 L 519.804688 438.542969 L 519.804688 449.320313 L 488.457031 449.320313 "/>
<path style=" stroke:none;fill-rule:nonzero;fill:rgb(37.599182%,37.599182%,37.599182%);fill-opacity:1;" d="M 526.066406 449.320313 L 538.929688 449.320313 L 538.929688 401.300781 L 526.066406 401.300781 Z M 526.066406 449.320313 "/>
<path style=" stroke:none;fill-rule:nonzero;fill:rgb(37.599182%,37.599182%,37.599182%);fill-opacity:1;" d="M 557.109375 412.097656 L 544.875 412.097656 L 544.875 401.304688 L 582.4375 401.304688 L 582.4375 412.097656 L 569.96875 412.097656 L 569.96875 449.320313 L 557.109375 449.320313 "/>
<path style=" stroke:none;fill-rule:nonzero;fill:rgb(37.599182%,37.599182%,37.599182%);fill-opacity:1;" d="M 606.566406 428.695313 L 604.339844 420.058594 C 603.609375 417.351563 602.699219 413.429688 601.953125 410.601563 L 601.8125 410.601563 C 601.097656 413.429688 600.382813 417.386719 599.691406 420.113281 L 597.625 428.695313 Z M 595.914063 438.191406 L 593.207031 449.320313 L 579.902344 449.320313 L 593.832031 401.300781 L 610.964844 401.300781 L 625.285156 449.320313 L 611.394531 449.320313 L 608.328125 438.191406 "/>
<path style=" stroke:none;fill-rule:nonzero;fill:rgb(37.599182%,37.599182%,37.599182%);fill-opacity:1;" d="M 631.425781 449.320313 L 631.425781 401.300781 L 646.601563 401.300781 L 654.222656 416.03125 C 656.824219 420.804688 659.636719 427.234375 661.757813 432.863281 L 661.949219 432.863281 C 661.238281 426.542969 660.988281 419.828125 660.988281 412.648438 L 660.988281 401.300781 L 672.746094 401.300781 L 672.746094 449.320313 L 659.175781 449.320313 L 651.035156 433.363281 C 648.363281 428.269531 645.246094 421.820313 642.949219 416.015625 L 642.699219 416.015625 C 643.019531 422.5 643.179688 429.730469 643.179688 437.53125 L 643.179688 449.320313 "/>
<g clip-path="url(#clip1)" clip-rule="nonzero">
<path style=" stroke:none;fill-rule:nonzero;fill:rgb(37.599182%,37.599182%,37.599182%);fill-opacity:1;" d="M 693.242188 425.367188 C 693.242188 434.394531 697.175781 439.917969 703.320313 439.917969 C 709.574219 439.917969 713.1875 433.898438 713.1875 425.242188 C 713.1875 416.976563 709.484375 410.707031 703.25 410.707031 C 697.175781 410.707031 693.242188 416.53125 693.242188 425.367188 M 726.796875 424.832031 C 726.796875 440.273438 717.515625 450.105469 702.699219 450.105469 C 687.808594 450.105469 679.632813 438.9375 679.632813 425.597656 C 679.632813 411.617188 688.789063 400.519531 703.5 400.519531 C 718.941406 400.519531 726.796875 411.972656 726.796875 424.832031 "/>
</g>
<path style=" stroke:none;fill-rule:nonzero;fill:rgb(37.599182%,37.599182%,37.599182%);fill-opacity:1;" d="M 94.449219 148.355469 L 94.449219 92.28125 C 77.835938 101.492188 76.527344 109.472656 76.527344 109.472656 L 76.527344 161.265625 C 79.058594 156.175781 85.472656 151.921875 94.449219 148.355469 "/>
<path style=" stroke:none;fill-rule:nonzero;fill:rgb(37.599182%,37.599182%,37.599182%);fill-opacity:1;" d="M 117.167969 141.726563 L 117.167969 82.746094 C 109.261719 85.3125 102.898438 87.953125 97.761719 90.535156 L 97.761719 147.113281 C 103.464844 145.085938 110.019531 143.300781 117.167969 141.726563 "/>
<path style=" stroke:none;fill-rule:nonzero;fill:rgb(37.599182%,37.599182%,37.599182%);fill-opacity:1;" d="M 136.082031 138.214844 L 136.082031 77.535156 C 130.246094 78.902344 124.984375 80.324219 120.234375 81.78125 L 120.234375 141.066406 C 125.289063 140.019531 130.601563 139.070313 136.082031 138.214844 "/>
<path style=" stroke:none;fill-rule:nonzero;fill:rgb(37.599182%,37.599182%,37.599182%);fill-opacity:1;" d="M 159.457031 135.15625 L 159.457031 72.957031 C 152.453125 74.101563 146.027344 75.328125 140.152344 76.613281 L 140.152344 137.597656 C 146.445313 136.675781 152.921875 135.863281 159.457031 135.15625 "/>
<path style=" stroke:none;fill-rule:nonzero;fill:rgb(37.599182%,37.599182%,37.599182%);fill-opacity:1;" d="M 185.109375 132.84375 L 185.109375 69.488281 C 177.132813 70.371094 169.734375 71.351563 162.886719 72.414063 L 162.886719 134.789063 C 170.316406 134.023438 177.78125 133.382813 185.109375 132.84375 "/>
<path style=" stroke:none;fill-rule:nonzero;fill:rgb(37.599182%,37.599182%,37.599182%);fill-opacity:1;" d="M 213.644531 131.171875 L 213.644531 66.960938 C 204.636719 67.578125 196.238281 68.3125 188.371094 69.136719 L 188.371094 132.609375 C 197.164063 131.996094 205.703125 131.523438 213.644531 131.171875 "/>
<path style=" stroke:none;fill-rule:nonzero;fill:rgb(37.599182%,37.599182%,37.599182%);fill-opacity:1;" d="M 244.554688 130.199219 L 244.554688 65.40625 C 234.921875 65.734375 225.867188 66.183594 217.304688 66.726563 L 217.304688 131.011719 C 227.886719 130.570313 237.253906 130.332031 244.554688 130.199219 "/>
<path style=" stroke:none;fill-rule:nonzero;fill:rgb(37.599182%,37.599182%,37.599182%);fill-opacity:1;" d="M 260.710938 130.046875 C 266.820313 130.046875 273.234375 129.925781 279.867188 129.703125 L 279.867188 64.773438 C 268.992188 64.808594 258.730469 64.984375 248.988281 65.273438 L 248.988281 130.128906 C 256.347656 130.027344 260.710938 130.046875 260.710938 130.046875 "/>
<path style=" stroke:none;fill-rule:nonzero;fill:rgb(37.599182%,37.599182%,37.599182%);fill-opacity:1;" d="M 317.835938 127.59375 L 317.835938 62.429688 C 300.066406 64.140625 289.089844 64.773438 289.089844 64.773438 C 287.171875 64.765625 285.3125 64.769531 283.433594 64.773438 L 283.433594 129.574219 C 294.46875 129.152344 306.054688 128.464844 317.835938 127.59375 "/>
<path style=" stroke:none;fill-rule:nonzero;fill:rgb(37.599182%,37.599182%,37.599182%);fill-opacity:1;" d="M 359.523438 123.886719 L 359.523438 57.664063 C 345.101563 59.574219 332.074219 61.023438 321.253906 62.097656 L 321.253906 127.335938 C 333.984375 126.355469 346.890625 125.175781 359.523438 123.886719 "/>
<path style=" stroke:none;fill-rule:nonzero;fill:rgb(37.599182%,37.599182%,37.599182%);fill-opacity:1;" d="M 404.433594 118.816406 L 404.433594 50.757813 C 390.046875 53.300781 376.128906 55.414063 363.230469 57.164063 L 363.230469 123.507813 C 377.605469 122.015625 391.5625 120.398438 404.433594 118.816406 "/>
<path style=" stroke:none;fill-rule:nonzero;fill:rgb(37.599182%,37.599182%,37.599182%);fill-opacity:1;" d="M 448.453125 113.003906 L 448.453125 41.796875 C 435.125 44.914063 421.714844 47.636719 408.636719 50.007813 L 408.636719 118.296875 C 424.066406 116.367188 437.746094 114.511719 448.453125 113.003906 "/>
<path style=" stroke:none;fill-rule:nonzero;fill:rgb(37.599182%,37.599182%,37.599182%);fill-opacity:1;" d="M 472.511719 109.472656 C 478.9375 108.992188 485.164063 108.585938 491.21875 108.242188 L 491.21875 33.292969 C 479.605469 34.523438 472.511719 35.683594 472.511719 35.683594 C 466.335938 37.390625 460.085938 38.996094 453.808594 40.519531 L 453.808594 112.242188 C 465.523438 110.5625 472.511719 109.472656 472.511719 109.472656 "/>
<path style=" stroke:none;fill-rule:nonzero;fill:rgb(37.599182%,37.599182%,37.599182%);fill-opacity:1;" d="M 528.652344 106.871094 L 528.652344 30.679688 C 515.433594 31.121094 503.605469 32.046875 494.25 32.980469 L 494.25 108.082031 C 506.453125 107.425781 517.910156 107.03125 528.652344 106.871094 "/>
<path style=" stroke:none;fill-rule:nonzero;fill:rgb(37.599182%,37.599182%,37.599182%);fill-opacity:1;" d="M 564.863281 107.261719 L 564.863281 30.894531 C 553.507813 30.339844 542.421875 30.300781 532.089844 30.578125 L 532.089844 106.820313 C 543.871094 106.695313 554.761719 106.863281 564.863281 107.261719 "/>
<path style=" stroke:none;fill-rule:nonzero;fill:rgb(37.599182%,37.599182%,37.599182%);fill-opacity:1;" d="M 595.382813 109.375 L 595.382813 33.753906 C 585.980469 32.394531 576.460938 31.519531 567.089844 31.007813 L 567.089844 107.34375 C 577.351563 107.789063 586.746094 108.484375 595.382813 109.375 "/>
<path style=" stroke:none;fill-rule:nonzero;fill:rgb(37.599182%,37.599182%,37.599182%);fill-opacity:1;" d="M 623.738281 113.441406 L 623.738281 39.609375 C 615.683594 37.359375 607.296875 35.613281 598.78125 34.273438 L 598.78125 109.742188 C 607.984375 110.769531 616.273438 112.023438 623.738281 113.441406 "/>
<path style=" stroke:none;fill-rule:nonzero;fill:rgb(37.599182%,37.599182%,37.599182%);fill-opacity:1;" d="M 650.164063 120.085938 L 650.164063 49.644531 C 643.023438 46.035156 635.289063 43.046875 627.160156 40.601563 L 627.160156 114.113281 C 635.984375 115.914063 643.605469 117.941406 650.164063 120.085938 "/>
<path style=" stroke:none;fill-rule:nonzero;fill:rgb(37.599182%,37.599182%,37.599182%);fill-opacity:1;" d="M 671.761719 129.3125 L 671.761719 64.441406 C 666.199219 59.226563 659.785156 54.75 652.703125 50.945313 L 652.703125 120.9375 C 660.554688 123.652344 666.804688 126.519531 671.761719 129.3125 "/>
<path style=" stroke:none;fill-rule:nonzero;fill:rgb(37.599182%,37.599182%,37.599182%);fill-opacity:1;" d="M 674.460938 130.894531 C 687.890625 139.160156 690.308594 146.363281 690.308594 146.363281 L 690.308594 93.863281 C 687.097656 83.351563 681.609375 74.527344 674.460938 67.105469 "/>
<path style=" stroke:none;fill-rule:nonzero;fill:rgb(37.599182%,37.599182%,37.599182%);fill-opacity:1;" d="M 94.449219 208.113281 L 94.449219 152.550781 C 85.546875 156.519531 79.078125 161.414063 76.527344 167.453125 L 76.527344 214.191406 C 77.183594 212.933594 80.507813 210.625 94.449219 208.113281 "/>
<path style=" stroke:none;fill-rule:nonzero;fill:rgb(37.599182%,37.599182%,37.599182%);fill-opacity:1;" d="M 117.167969 145.289063 C 110.078125 146.949219 103.503906 148.890625 97.761719 151.164063 L 97.761719 207.546875 C 102.90625 206.710938 109.285156 205.855469 117.167969 205.019531 "/>
<path style=" stroke:none;fill-rule:nonzero;fill:rgb(37.599182%,37.599182%,37.599182%);fill-opacity:1;" d="M 136.082031 203.292969 L 136.082031 141.65625 C 130.644531 142.507813 125.328125 143.484375 120.234375 144.59375 L 120.234375 204.703125 C 124.988281 204.226563 130.25 203.753906 136.082031 203.292969 "/>
<path style=" stroke:none;fill-rule:nonzero;fill:rgb(37.599182%,37.599182%,37.599182%);fill-opacity:1;" d="M 159.457031 201.707031 L 159.457031 138.714844 C 153.019531 139.351563 146.527344 140.121094 140.152344 141.042969 L 140.152344 202.980469 C 146.035156 202.539063 152.449219 202.113281 159.457031 201.707031 "/>
<path style=" stroke:none;fill-rule:nonzero;fill:rgb(37.599182%,37.599182%,37.599182%);fill-opacity:1;" d="M 185.109375 200.417969 L 185.109375 136.777344 C 178.027344 137.164063 170.523438 137.6875 162.886719 138.390625 L 162.886719 201.511719 C 169.738281 201.128906 177.132813 200.761719 185.109375 200.417969 "/>
<path style=" stroke:none;fill-rule:nonzero;fill:rgb(37.599182%,37.599182%,37.599182%);fill-opacity:1;" d="M 213.644531 199.363281 L 213.644531 135.773438 C 206.65625 135.882813 197.964844 136.121094 188.371094 136.605469 L 188.371094 200.277344 C 196.226563 199.949219 204.652344 199.644531 213.644531 199.363281 "/>
<path style=" stroke:none;fill-rule:nonzero;fill:rgb(37.599182%,37.599182%,37.599182%);fill-opacity:1;" d="M 230.929688 198.867188 C 230.929688 198.867188 235.871094 198.792969 244.554688 198.613281 L 244.554688 135.550781 C 239.929688 135.648438 235.375 135.707031 230.929688 135.722656 C 230.929688 135.722656 225.75 135.628906 217.304688 135.722656 L 217.304688 199.25 C 221.714844 199.117188 226.238281 198.988281 230.929688 198.867188 "/>
<path style=" stroke:none;fill-rule:nonzero;fill:rgb(37.599182%,37.599182%,37.599182%);fill-opacity:1;" d="M 279.863281 197.734375 L 279.863281 134.195313 C 269.429688 134.753906 259.054688 135.1875 248.988281 135.449219 L 248.988281 198.519531 C 257.089844 198.339844 267.597656 198.085938 279.863281 197.734375 "/>
<path style=" stroke:none;fill-rule:nonzero;fill:rgb(37.599182%,37.599182%,37.599182%);fill-opacity:1;" d="M 317.835938 196.496094 L 317.835938 131.699219 C 306.566406 132.566406 294.980469 133.355469 283.433594 134.003906 L 283.433594 197.628906 C 293.863281 197.324219 305.453125 196.949219 317.835938 196.496094 "/>
<path style=" stroke:none;fill-rule:nonzero;fill:rgb(37.599182%,37.599182%,37.599182%);fill-opacity:1;" d="M 359.523438 194.769531 L 359.523438 128.078125 C 347.679688 129.21875 334.726563 130.378906 321.253906 131.4375 L 321.253906 196.371094 C 333.414063 195.914063 346.28125 195.386719 359.523438 194.769531 "/>
<path style=" stroke:none;fill-rule:nonzero;fill:rgb(37.599182%,37.599182%,37.599182%);fill-opacity:1;" d="M 404.433594 192.394531 L 404.433594 123.347656 C 394.417969 124.496094 380.070313 126.074219 363.230469 127.71875 L 363.230469 194.597656 C 376.734375 193.953125 390.582031 193.226563 404.433594 192.394531 "/>
<path style=" stroke:none;fill-rule:nonzero;fill:rgb(37.599182%,37.599182%,37.599182%);fill-opacity:1;" d="M 448.453125 189.371094 L 448.453125 118.011719 C 439.191406 119.039063 429.617188 120.199219 419.636719 121.53125 C 419.636719 121.53125 415.636719 122.039063 408.636719 122.855469 L 408.636719 192.140625 C 422.058594 191.3125 435.4375 190.394531 448.453125 189.371094 "/>
<path style=" stroke:none;fill-rule:nonzero;fill:rgb(37.599182%,37.599182%,37.599182%);fill-opacity:1;" d="M 477.8125 186.804688 C 477.8125 186.804688 482.78125 186.390625 491.214844 185.878906 L 491.214844 114.070313 C 479.441406 114.910156 467.003906 116.007813 453.808594 117.414063 L 453.808594 188.941406 C 462 188.273438 470.03125 187.5625 477.8125 186.804688 "/>
<path style=" stroke:none;fill-rule:nonzero;fill:rgb(37.599182%,37.599182%,37.599182%);fill-opacity:1;" d="M 528.652344 184.273438 L 528.652344 112.207031 C 517.90625 112.488281 506.453125 113.023438 494.25 113.855469 L 494.25 185.699219 C 503.101563 185.1875 515.007813 184.621094 528.652344 184.273438 "/>
<path style=" stroke:none;fill-rule:nonzero;fill:rgb(37.599182%,37.599182%,37.599182%);fill-opacity:1;" d="M 564.863281 184.011719 L 564.863281 112.269531 C 554.765625 111.945313 543.859375 111.882813 532.089844 112.132813 L 532.089844 184.191406 C 542.3125 183.964844 553.40625 183.867188 564.863281 184.011719 "/>
<path style=" stroke:none;fill-rule:nonzero;fill:rgb(37.599182%,37.599182%,37.599182%);fill-opacity:1;" d="M 595.382813 185.011719 L 595.382813 114.230469 C 586.742188 113.363281 577.351563 112.710938 567.089844 112.335938 L 567.089844 184.039063 C 576.402344 184.183594 585.925781 184.484375 595.382813 185.011719 "/>
<path style=" stroke:none;fill-rule:nonzero;fill:rgb(37.599182%,37.599182%,37.599182%);fill-opacity:1;" d="M 623.738281 187.371094 L 623.738281 118.300781 C 616.269531 116.855469 607.988281 115.589844 598.78125 114.578125 L 598.78125 185.214844 C 607.246094 185.734375 615.628906 186.441406 623.738281 187.371094 "/>
<path style=" stroke:none;fill-rule:nonzero;fill:rgb(37.599182%,37.599182%,37.599182%);fill-opacity:1;" d="M 650.164063 191.507813 L 650.164063 125.160156 C 643.605469 122.929688 635.988281 120.835938 627.160156 118.992188 L 627.160156 187.777344 C 635.207031 188.773438 642.9375 190.003906 650.164063 191.507813 "/>
<path style=" stroke:none;fill-rule:nonzero;fill:rgb(37.599182%,37.599182%,37.599182%);fill-opacity:1;" d="M 652.703125 192.054688 C 659.621094 193.585938 666.039063 195.375 671.761719 197.476563 L 671.761719 134.8125 C 666.800781 131.875 660.554688 128.871094 652.703125 126.046875 "/>
<path style=" stroke:none;fill-rule:nonzero;fill:rgb(37.599182%,37.599182%,37.599182%);fill-opacity:1;" d="M 674.460938 136.472656 L 674.460938 198.511719 C 680.78125 201.039063 686.167969 203.972656 690.308594 207.382813 L 690.308594 152.75 C 690.308594 152.75 687.835938 145.128906 674.460938 136.472656 "/>
<path style=" stroke:none;fill-rule:nonzero;fill:rgb(37.599182%,37.599182%,37.599182%);fill-opacity:1;" d="M 76.378906 260.59375 L 76.527344 260.59375 L 76.527344 219.441406 "/>
<path style=" stroke:none;fill-rule:nonzero;fill:rgb(37.599182%,37.599182%,37.599182%);fill-opacity:1;" d="M 94.449219 212.496094 C 85.546875 214.402344 79.078125 216.6875 76.527344 219.441406 L 76.527344 260.59375 L 94.449219 260.59375 "/>
<path style=" stroke:none;fill-rule:nonzero;fill:rgb(37.599182%,37.599182%,37.599182%);fill-opacity:1;" d="M 97.761719 211.828125 L 97.761719 260.59375 L 117.167969 260.59375 L 117.167969 208.929688 C 110.078125 209.769531 103.503906 210.730469 97.761719 211.828125 "/>
<path style=" stroke:none;fill-rule:nonzero;fill:rgb(37.599182%,37.599182%,37.599182%);fill-opacity:1;" d="M 120.234375 208.578125 L 120.234375 260.59375 L 136.082031 260.59375 L 136.082031 207.046875 C 130.644531 207.5 125.328125 208.007813 120.234375 208.578125 "/>
<path style=" stroke:none;fill-rule:nonzero;fill:rgb(37.599182%,37.599182%,37.599182%);fill-opacity:1;" d="M 140.152344 206.714844 L 140.152344 260.59375 L 159.457031 260.59375 L 159.457031 205.414063 C 153.019531 205.785156 146.527344 206.214844 140.152344 206.714844 "/>
<path style=" stroke:none;fill-rule:nonzero;fill:rgb(37.599182%,37.599182%,37.599182%);fill-opacity:1;" d="M 162.886719 205.222656 L 162.886719 260.59375 L 185.109375 260.59375 L 185.109375 204.203125 C 178.027344 204.46875 170.523438 204.804688 162.886719 205.222656 "/>
<path style=" stroke:none;fill-rule:nonzero;fill:rgb(37.599182%,37.599182%,37.599182%);fill-opacity:1;" d="M 188.371094 204.082031 L 188.371094 260.59375 L 213.644531 260.59375 L 213.644531 203.375 C 206.65625 203.515625 197.964844 203.738281 188.371094 204.082031 "/>
<path style=" stroke:none;fill-rule:nonzero;fill:rgb(37.599182%,37.599182%,37.599182%);fill-opacity:1;" d="M 230.929688 203.125 C 230.929688 203.125 225.75 203.152344 217.304688 203.304688 L 217.304688 260.59375 L 244.554688 260.59375 L 244.554688 203.226563 C 240.007813 203.210938 235.460938 203.179688 230.929688 203.125 "/>
<path style=" stroke:none;fill-rule:nonzero;fill:rgb(37.599182%,37.599182%,37.599182%);fill-opacity:1;" d="M 248.988281 203.238281 L 248.988281 260.59375 L 279.863281 260.59375 L 279.863281 203.003906 C 269.628906 203.164063 259.304688 203.246094 248.988281 203.238281 "/>
<path style=" stroke:none;fill-rule:nonzero;fill:rgb(37.599182%,37.599182%,37.599182%);fill-opacity:1;" d="M 283.429688 202.941406 L 283.429688 260.59375 L 317.835938 260.59375 L 317.835938 202.066406 C 306.578125 202.4375 295.066406 202.738281 283.429688 202.941406 "/>
<path style=" stroke:none;fill-rule:nonzero;fill:rgb(37.599182%,37.599182%,37.599182%);fill-opacity:1;" d="M 321.253906 201.949219 L 321.253906 260.59375 L 359.523438 260.59375 L 359.523438 200.347656 C 347.285156 200.949219 334.453125 201.496094 321.253906 201.949219 "/>
<path style=" stroke:none;fill-rule:nonzero;fill:rgb(37.599182%,37.599182%,37.599182%);fill-opacity:1;" d="M 363.230469 200.160156 L 363.230469 260.59375 L 404.433594 260.59375 L 404.433594 197.777344 C 391.863281 198.59375 378 199.414063 363.230469 200.160156 "/>
<path style=" stroke:none;fill-rule:nonzero;fill:rgb(37.599182%,37.599182%,37.599182%);fill-opacity:1;" d="M 408.636719 197.5 L 408.636719 260.59375 L 448.453125 260.59375 L 448.453125 194.570313 C 437.945313 195.421875 424.394531 196.449219 408.636719 197.5 "/>
<path style=" stroke:none;fill-rule:nonzero;fill:rgb(37.599182%,37.599182%,37.599182%);fill-opacity:1;" d="M 472.511719 192.480469 C 472.511719 192.480469 465.714844 193.140625 453.808594 194.132813 L 453.808594 260.59375 L 491.21875 260.59375 L 491.21875 191.21875 C 485.152344 191.585938 478.933594 192 472.511719 192.480469 "/>
<path style=" stroke:none;fill-rule:nonzero;fill:rgb(37.599182%,37.599182%,37.599182%);fill-opacity:1;" d="M 494.25 191.039063 L 494.25 260.59375 L 528.652344 260.59375 L 528.652344 189.558594 C 517.878906 189.847656 506.425781 190.328125 494.25 191.039063 "/>
<path style=" stroke:none;fill-rule:nonzero;fill:rgb(37.599182%,37.599182%,37.599182%);fill-opacity:1;" d="M 532.089844 189.472656 L 532.089844 260.59375 L 564.863281 260.59375 L 564.863281 189.308594 C 554.734375 189.15625 543.820313 189.199219 532.089844 189.472656 "/>
<path style=" stroke:none;fill-rule:nonzero;fill:rgb(37.599182%,37.599182%,37.599182%);fill-opacity:1;" d="M 567.089844 189.347656 L 567.089844 260.59375 L 595.382813 260.59375 L 595.382813 190.453125 C 586.710938 189.914063 577.300781 189.535156 567.089844 189.347656 "/>
<path style=" stroke:none;fill-rule:nonzero;fill:rgb(37.599182%,37.599182%,37.599182%);fill-opacity:1;" d="M 598.78125 190.671875 L 598.78125 260.59375 L 623.738281 260.59375 L 623.738281 193.007813 C 616.230469 192.089844 607.933594 191.296875 598.78125 190.671875 "/>
<path style=" stroke:none;fill-rule:nonzero;fill:rgb(37.599182%,37.599182%,37.599182%);fill-opacity:1;" d="M 627.160156 193.441406 L 627.160156 260.59375 L 650.164063 260.59375 L 650.164063 197.277344 C 643.535156 195.898438 635.910156 194.589844 627.160156 193.441406 "/>
<path style=" stroke:none;fill-rule:nonzero;fill:rgb(37.599182%,37.599182%,37.599182%);fill-opacity:1;" d="M 652.703125 260.59375 L 671.761719 260.59375 L 671.761719 202.972656 C 666.707031 201.28125 660.425781 199.507813 652.703125 197.816406 "/>
<path style=" stroke:none;fill-rule:nonzero;fill:rgb(37.599182%,37.599182%,37.599182%);fill-opacity:1;" d="M 674.460938 260.59375 L 690.308594 260.59375 L 690.308594 211.636719 C 690.308594 211.636719 686.242188 208.140625 674.460938 203.90625 "/>
<path style=" stroke:none;fill-rule:nonzero;fill:rgb(37.599182%,37.599182%,37.599182%);fill-opacity:1;" d="M 76.378906 292.519531 C 76.378906 292.519531 76.414063 292.554688 76.527344 292.621094 L 76.527344 266.980469 "/>
<path style=" stroke:none;fill-rule:nonzero;fill:rgb(37.599182%,37.599182%,37.599182%);fill-opacity:1;" d="M 76.527344 266.980469 L 76.527344 292.621094 C 77.183594 293 80.492188 294.429688 94.449219 295.792969 L 94.449219 266.980469 "/>
<path style=" stroke:none;fill-rule:nonzero;fill:rgb(37.599182%,37.599182%,37.599182%);fill-opacity:1;" d="M 97.761719 266.980469 L 97.761719 296.097656 C 102.90625 296.542969 109.285156 296.972656 117.167969 297.347656 L 117.167969 266.980469 "/>
<path style=" stroke:none;fill-rule:nonzero;fill:rgb(37.599182%,37.599182%,37.599182%);fill-opacity:1;" d="M 120.234375 266.980469 L 120.234375 297.488281 C 124.988281 297.695313 130.253906 297.878906 136.082031 298.039063 L 136.082031 266.980469 "/>
<path style=" stroke:none;fill-rule:nonzero;fill:rgb(37.599182%,37.599182%,37.599182%);fill-opacity:1;" d="M 140.152344 266.980469 L 140.152344 298.144531 C 146.03125 298.285156 152.453125 298.398438 159.457031 298.476563 L 159.457031 266.980469 "/>
<path style=" stroke:none;fill-rule:nonzero;fill:rgb(37.599182%,37.599182%,37.599182%);fill-opacity:1;" d="M 162.886719 266.980469 L 162.886719 298.511719 C 169.738281 298.578125 177.136719 298.613281 185.109375 298.609375 L 185.109375 266.980469 "/>
<path style=" stroke:none;fill-rule:nonzero;fill:rgb(37.599182%,37.599182%,37.599182%);fill-opacity:1;" d="M 188.371094 266.980469 L 188.371094 298.605469 C 196.230469 298.589844 204.644531 298.539063 213.644531 298.449219 L 213.644531 266.980469 "/>
<path style=" stroke:none;fill-rule:nonzero;fill:rgb(37.599182%,37.599182%,37.599182%);fill-opacity:1;" d="M 217.304688 266.980469 L 217.304688 298.410156 C 225.863281 298.316406 234.929688 298.183594 244.554688 298.011719 L 244.554688 266.980469 "/>
<path style=" stroke:none;fill-rule:nonzero;fill:rgb(37.599182%,37.599182%,37.599182%);fill-opacity:1;" d="M 248.988281 266.980469 L 248.988281 297.925781 C 255.714844 297.800781 262.671875 297.65625 269.933594 297.488281 C 269.933594 297.488281 273.355469 297.191406 279.863281 296.824219 L 279.863281 266.980469 "/>
<path style=" stroke:none;fill-rule:nonzero;fill:rgb(37.599182%,37.599182%,37.599182%);fill-opacity:1;" d="M 283.429688 266.980469 L 283.429688 296.632813 C 291.53125 296.21875 303.132813 295.761719 317.835938 295.539063 L 317.835938 266.980469 "/>
<path style=" stroke:none;fill-rule:nonzero;fill:rgb(37.599182%,37.599182%,37.599182%);fill-opacity:1;" d="M 321.253906 266.980469 L 321.253906 295.488281 C 332.40625 295.351563 345.214844 295.347656 359.523438 295.589844 L 359.523438 266.980469 "/>
<path style=" stroke:none;fill-rule:nonzero;fill:rgb(37.599182%,37.599182%,37.599182%);fill-opacity:1;" d="M 363.230469 266.980469 L 363.230469 295.65625 C 375.878906 295.902344 389.648438 296.34375 404.433594 297.042969 L 404.433594 266.980469 "/>
<path style=" stroke:none;fill-rule:nonzero;fill:rgb(37.599182%,37.599182%,37.599182%);fill-opacity:1;" d="M 408.636719 266.980469 L 408.636719 297.246094 C 421.21875 297.875 434.515625 298.699219 448.453125 299.75 L 448.453125 266.980469 "/>
<path style=" stroke:none;fill-rule:nonzero;fill:rgb(37.599182%,37.599182%,37.599182%);fill-opacity:1;" d="M 453.808594 266.980469 L 453.808594 300.164063 C 459.925781 300.644531 466.15625 301.167969 472.511719 301.746094 C 472.511719 301.746094 479.59375 301.996094 491.21875 302.277344 L 491.21875 266.980469 "/>
<path style=" stroke:none;fill-rule:nonzero;fill:rgb(37.599182%,37.599182%,37.599182%);fill-opacity:1;" d="M 494.25 266.980469 L 494.25 302.347656 C 503.597656 302.5625 515.421875 302.785156 528.652344 302.917969 L 528.652344 266.980469 "/>
<path style=" stroke:none;fill-rule:nonzero;fill:rgb(37.599182%,37.599182%,37.599182%);fill-opacity:1;" d="M 532.089844 266.980469 L 532.089844 302.949219 C 542.40625 303.035156 553.492188 303.066406 564.863281 302.996094 L 564.863281 266.980469 "/>
<path style=" stroke:none;fill-rule:nonzero;fill:rgb(37.599182%,37.599182%,37.599182%);fill-opacity:1;" d="M 567.089844 266.980469 L 567.089844 302.984375 C 576.441406 302.917969 585.960938 302.777344 595.382813 302.550781 L 595.382813 266.980469 "/>
<path style=" stroke:none;fill-rule:nonzero;fill:rgb(37.599182%,37.599182%,37.599182%);fill-opacity:1;" d="M 598.78125 266.980469 L 598.78125 302.460938 C 607.273438 302.230469 615.65625 301.925781 623.738281 301.519531 L 623.738281 266.980469 "/>
<path style=" stroke:none;fill-rule:nonzero;fill:rgb(37.599182%,37.599182%,37.599182%);fill-opacity:1;" d="M 627.160156 266.980469 L 627.160156 301.347656 C 635.238281 300.910156 642.96875 300.371094 650.164063 299.71875 L 650.164063 266.980469 "/>
<path style=" stroke:none;fill-rule:nonzero;fill:rgb(37.599182%,37.599182%,37.599182%);fill-opacity:1;" d="M 652.703125 266.980469 L 652.703125 299.480469 C 659.675781 298.808594 666.089844 298.015625 671.761719 297.089844 L 671.761719 266.980469 "/>
<path style=" stroke:none;fill-rule:nonzero;fill:rgb(37.599182%,37.599182%,37.599182%);fill-opacity:1;" d="M 674.460938 296.628906 C 680.96875 295.464844 686.375 294.109375 690.308594 292.519531 L 690.308594 266.980469 L 674.460938 266.980469 "/>
</g>
</svg>
